<svg xmlns="http://www.w3.org/2000/svg" viewBox="0 0 254.7 63.35"><defs><style>.a{fill:#006;}.b{fill:#ff6200;}</style></defs><title>ING Group logo</title><path class="a" d="M384.65,542.39v-1.71c4.07,0,7.06-.43,7.06-6.42V503c0-6.21-2.35-6.21-7.06-6.21v-1.93h24v1.93c-4.92,0-6.85,0-6.85,6.21v31.25c0,6,2.57,6.42,6.85,6.42v1.71Zm82.83-36v36.39H464.7l-36.6-37.67a14.13,14.13,0,0,1,.21,3V531c0,7.06,0,9.63,6.42,9.63v1.71H417.61v-1.71c6.42,0,6.42-3.21,6.42-9.63V504.94c0-4.07,0-8.13-6.64-8.13v-1.93h16.05l30,30.82a8.82,8.82,0,0,1-.21-2.57V506.44c0-6.85.21-9.63-6.21-9.63v-1.93h17.12v1.93c-6.42,0-6.64,2.57-6.64,9.63Zm59.07,19.91v12.2c-6.85,3.42-13.27,5.14-19.69,5.14-17.76,0-28.47-10.49-28.47-23.76,0-14.34,12.2-26.11,27.82-26.11a33.71,33.71,0,0,1,9.85,1.71c2.14.64,3.42,1.5,4.92,1.5,1.07,0,1.5-1.93,1.71-3.21h1.71l1.5,16.48h-2.14a15.82,15.82,0,0,0-4.28-7.71,17.09,17.09,0,0,0-12.84-5.14c-10.7,0-16.91,8.56-16.91,21.4,0,12.63,7.71,21,17.76,21a22,22,0,0,0,9.2-2.14V525.27c0-4.07-.64-5.56-6.42-5.56v-1.93h21.4v1.93c-5.35,0-5.14,1.71-5.14,6.64Z" transform="translate(-384.65 -480.32)"/><path class="b" d="M567.86,503.22c-.21-.64-1.07,0-1.93-.43a1.18,1.18,0,0,0,.43,1.07,5.57,5.57,0,0,1,1.5-.64Zm1.5-9c0-.43-.43-.64-.86-1.07h-4.07a1,1,0,0,0,.86,1.07c0,.64.64.86.86,1.07a1,1,0,0,0,1.07,0c.64.21.64-.43.86,0a6.6,6.6,0,0,1-.21,2.14c0,1.28-1.07,1.07-1.93,1.71,0,.43-.64,1.28,0,1.71l1.71-.86c0-.43.43-.86,1.07-1.28,0-1.5.64-3,.64-4.49Zm7.71,9.85v-.86h-1.71l-.21.21ZM567,488.46c-.21-1.71-2.14-1.93-3-2.57h-.64c-1.28.43-1.71,1.93-1.71,3,.43,1.5,1.28.64,1.93,1.5a27.61,27.61,0,0,1,3.42-1.93Zm3.64,1.71c-.21-.21-1.28.21-1.93.43a1.36,1.36,0,0,0-1.07,1.28h1.93c0-.64.86-1.28,1.07-1.71Zm8.56,3.64s.21,0,0-.21l-3.64-.43c-.43.43-1.28.43-1.28,1.07h-.43a13.87,13.87,0,0,1,.43,4.28,1.6,1.6,0,0,1,1.28,1.5,19.89,19.89,0,0,1,2.14,1.07,4.68,4.68,0,0,0,.64-1.07c-.64-.86-2.14-.43-2.14-1.93l-1.07-.43a9.6,9.6,0,0,0-.21-2.57l.21-.21c0,.21.21.43.43.64.86,0,1.5.21,2.14-.21.21-.21.21-1.07.64-1.07a.85.85,0,0,0,.86-.43Zm-2.78-1.93c0-.64,0-.64-.21-.64-.86,0-.86-1.28-1.5-1.07-.43,0-.86-.21-1.28,0,0,.21,0,.21.43.21.86,0,.43,1.28,1.07,1.5Zm5.78-1.07a4.28,4.28,0,0,0-.43-3.21c-.21-.64-1.07-1.07-1.93-1.71l-1.28.64a2.09,2.09,0,0,0-.86,1.93,5.85,5.85,0,0,1,2.78,2.78h.43c.64-.43.86,0,1.28-.43Zm-35.1,47.3c-.21,0-.64-.64-1.07-.64-.64,1.07,0,1.71,0,3a4.35,4.35,0,0,1-.21,1.07c-.43,0-1.07-.86-1.07-1.5v-2.78l1.28-1.71a2,2,0,0,1,1.07,2.57Zm4.49-1.93a3.45,3.45,0,0,1-.64,1.93c-.21-.86-.64-1.71-1.5-1.71-.64,1.5-.86,1.93,0,4.07a12,12,0,0,1-1.71,1.07,11.31,11.31,0,0,1-.21-2.57,14.89,14.89,0,0,1,.43-3.42c.64-.64.86-1.5,1.5-1.71h1.71c-.86,0-.86.64-.86,1.07.43.21,1.28.43,1.28,1.28Zm6,1.07c0,1.28-2.35,3.21-2.35,3.21,0-.86.64-1.93.64-3a3.3,3.3,0,0,0-1.5-.64,2.44,2.44,0,0,0-.64,1.28c-.43,1.07-1.5,1.93-1.71,3a.21.21,0,0,1-.21-.21c0-1.71.21-4.49,1.28-5.78a2.61,2.61,0,0,1,2.57-1.07h.86l-.64,1.07c.64.43,1.71,1.07,1.71,2.14Zm4.49-1.71-.43,1.71L560.59,534c-1.28-1.07-3-1.28-3.85-1.93-.64-.21-.64.21-.86,0a2.31,2.31,0,0,1,.43-1.5h1.07l1.07.64c.43.43,1.71.43,1.71,1.5,0,.21-.21.21.21,1.07l1.71.21Zm2.57-2.57L563.58,534c-.43-.21,0-1.07-.64-1.71,0-.21.43-.43.21-.64a19.8,19.8,0,0,0-2.14-1.07,15,15,0,0,1-2.14-1.71,9.42,9.42,0,0,0-2.14.43v-.43c.43-.64.43-1.5,1.5-1.5a2,2,0,0,1,1.5.43c.64,0,1.07.86,1.5,1.07a20.73,20.73,0,0,1,1.93,1.5,1.63,1.63,0,0,0,.43,1.07c1.07,0,.86.86,1.07,1.5Zm.86-5.14c0,.43-.21,2.57-.21,2.57-.21-1.28-1.07-2.57-2.14-2.57-.43-.43-1.07-.86-1.07-1.5-.43-.43-1.07,0-1.71-.43a3.86,3.86,0,0,0-2.14.43v-.43l1.07-1.5c1.28.21,2.78,0,3,.86.86.64,1.71,1.07,1.93,1.5v.43c.21.21,1.07.43,1.28.64Zm-.86-8.78-.64,2.57c-.86.64-1.93.43-3,.43,1.28-.43,2.35-1.93,3-3,.21-.21.43,0,.64,0Zm-2.35-1.93a3.28,3.28,0,0,1-1.07,2.35,3.08,3.08,0,0,1-.64.43c0-1.07.43-1.93.43-2.57.64-.21,1.07-.64,1.28-.21Zm-1.93-2.57c-.86.86-1.71,1.07-1.93,2.14a2.29,2.29,0,0,0-.43-1.28,2.16,2.16,0,0,1,.86-1.28,13.64,13.64,0,0,0,1.5.43Zm12.41,12.84a3.52,3.52,0,0,1-2.14.43l-1.07-1.5h2.57Zm-3.42-7.71c-.64.86-1.07,1.93-2.14,2.35a8.32,8.32,0,0,1-2.35,0,12,12,0,0,1,1.71-1.07l1.28-1.28ZM585,537.47l-.64.64c-.43-.64-.21-1.93-1.07-2.14-.86,0-1.5-.86-1.71-1.07l.64-.21s.21-.21.64,0,.64.43.64.86c.43.43.86,0,1.28.43.21.43.43,1.28.21,1.5ZM572.36,521c-.21,1.07-.64,1.28-1.5,2.57-.43.21-1.5.43-2.57.86.21-.43.64-.64,1.07-1.07.21-.64,1.07-1.28,1.07-1.93a3.52,3.52,0,0,1,1.93-.43Zm-8.13-6a5.16,5.16,0,0,1-2.57-2.14,4.13,4.13,0,0,1-.64-2.14c.64,0,1.07.64,1.28.86v.21a7.19,7.19,0,0,1,1.93,3.21Zm13.06,12.2h-.21c-.21,0-1.5-.43-1.71-.86a2.86,2.86,0,0,1-.21-1.07h1.28Zm13.48,7.92a19.81,19.81,0,0,1-.64,2.14c-.21-1.07-.64-2.57-1.93-2.57,0-.64-.21-.86-.86-1.5l-1.5-.21c.21.86,1.28.86.64,1.71.64.43,1.07.43,1.5,1.28.21.43,0,1.28.21,1.5l-1.07.64c0-.86.21-2.57-1.07-3-.86.43-1.07-1.07-1.93-1.28-.21,0-.21-.86-.86-.64-.86.64-1.71,0-2.57.64l.86-1.5c.64-.43,1.28-.21,1.93-.43l1.5-.21c1.28,0,2.35.64,3.85,1.28a1.61,1.61,0,0,1,1.07,1.5c.21.21.86.21.86.64Zm-24.4-22.69-.43,2.14a8.45,8.45,0,0,1-1.28-3.21Zm3.21,4.92c-.86-1.07-1.71-1.93-1.71-3a4.18,4.18,0,0,1,1.5.21c0,.86.21,1.71.21,2.78Zm19.48,14.34c-.64-.43-1.71-.43-1.93-1.28a5.93,5.93,0,0,0-1.93-.21,9.6,9.6,0,0,1-2.35.21c-.21,0,0-.21-.43-.43-.86.43-1.93.43-3,1.5l.86-2.14a6.64,6.64,0,0,0,1.5-.43h1.71c1.93,0,4.07,0,5.56,1.5ZM579,522.06a5.11,5.11,0,0,1-1.93.64,21.44,21.44,0,0,1-2.78-3.21l2.78.43a19.3,19.3,0,0,1,1.93,2.14Zm-5.78-7.49c0,1.07-.21,2.78-1.28,3.21l-.43-1.71a5.37,5.37,0,0,0,1.71-1.5Zm15.62,13.7a2.19,2.19,0,0,1-2.14-.86c-.21,0-.43-.43-.64-.21-.86.64-1.71-.43-2.78-.21a2.22,2.22,0,0,1-1.71.86h0a1.62,1.62,0,0,1,.86-1.5c1.07.43,1.93-1.93,3-.64a3.18,3.18,0,0,0,1.28.21c1.28.43,1.5,1.5,2.14,2.35Zm3.85,6.42h-.21c-.21-.64-.43-.86-.86-.86.64-1.93-.43-3.42-.86-4.92v-.64c.64.86,1.93,1.71,1.71,2.57a27.45,27.45,0,0,1,.21,3.85Zm-15.62-17.34c-.86-.64-2.35-.86-2.14-1.93.43-.86.86-.86,1.28-1.28a7.93,7.93,0,0,0,.86,3.21Zm-17.55-22-.86.86c.21,1.71-.43,3-.43,4.49l-.86-2.78a5.56,5.56,0,0,1,.86-2.14ZM585,521h-.64c-1.93.64-3.42-.43-4.92-1.5a7.55,7.55,0,0,1,3-.64l.64,1.07A19.29,19.29,0,0,1,585,521Zm-8.78-13.7c-.21.86-.64,2.57-1.5,3.21a2.17,2.17,0,0,0-.86-1.5v.43c0,.43-.43,1.07-.43,1.71a2.27,2.27,0,0,1-1.71.21v-.64c-.21-.21-.21-.86-.21-1.28l-.21-.21a.85.85,0,0,0-.43.86,2.29,2.29,0,0,0-.43,1.28,2.43,2.43,0,0,1-1.71-.64V509l-.86.86c-.86-.64-.86-1.93-.86-2.78,2.57-1.5,6-1.07,8.13-.21.43.21.64.21,1.07.43Zm4.71,9.2c-.64.21-1.71.64-2.14-.21a4.48,4.48,0,0,1,0-4.07,13.07,13.07,0,0,1,.64,2.78c.21.64,1.28,1.07,1.5,1.5ZM559.3,492.74l-1.28.43.21-.86a3.28,3.28,0,0,1,1.07-1.5Zm28.47,26.33a5.43,5.43,0,0,1-2.57-.43c-1.07-.64-1.28-.86-1.93-1.28.86-.64,1.71-.64,1.93-.86a7.35,7.35,0,0,0,2.57,2.57Zm-4.71-4.71c-.86.21-1.5-.64-2.35-1.07a15,15,0,0,1-.64-2.57c.64.64,2.14.64,1.71,2.14,0,.43.64.86,1.28,1.5Zm13.91,12c0,1.07-.64,1.93-.86,3a3.41,3.41,0,0,0-.86-2.57c0-.43.64-.43.21-.86,0,0-.86-.64-.86-1.28s.64-1.07.86-1.71c0-.21.64.43.64,1.5,0,0,0,.64-.21.86,0,.64,1.07.64,1.07,1.07Zm4.07,1.93c0,.86-1.07,1.93-1.5,2.57.43-.86.43-2.57,0-2.57-.21-.21-1.07,0-1.07-.43s.21-1.07.21-1.5c0-.64-.43-1.07-.43-1.28,0-1.07,1.07-1.28,1.5-1.93a6.6,6.6,0,0,1,.21,2.14c0,.43.43,1.5,0,2.35,0,.43,1.07.21,1.07.64Zm-13.91-15.84c-1.07,0-2.14.43-2.78-.64a2.58,2.58,0,0,0,1.07-1.07Zm4.71,3.85-.86.21a5.26,5.26,0,0,1-3.64-1.07,3,3,0,0,0,1.71-.86,6.57,6.57,0,0,0,2.78,1.71ZM585,505.58a12.94,12.94,0,0,0-6.85-2.14,1.6,1.6,0,0,1-.21,1.07,24.27,24.27,0,0,1,5.56,3.42v1.5c-1.71-1.71-3.42-3.42-5.56-3.85a3.38,3.38,0,0,0-1.07,1.28,10.85,10.85,0,0,0-3.85-1.93c-.64,0-.86-1.71-.86-1.71a3.34,3.34,0,0,0,1.71-1.71h.64c.43,0,.43-.43.43-.86,0-1.07-2.14-1.07-3.21-1.07a5.06,5.06,0,0,0-2.78.43c-.21,0-.21.64-.21.86s.64.64.64.64c.21,0,.64-.43,1.07-.43-.21,1.07,0,1.5,1.07,2.14l-.21,1.71a9.52,9.52,0,0,0-4.92,1.5,3.84,3.84,0,0,1-1.07-1.5c-2.14.64-5.56,3.42-5.56,3.42v-1.07c1.5-1.5,3.42-2.14,4.92-3v-1.07c-.64-.43-1.28,0-1.93,0a8.7,8.7,0,0,0-4.07,1.71,4.67,4.67,0,0,0-.21-1.28c1.93-1.07,4.28-1.93,6.42-1.5v-.64c-.21-.43-.21-.86-.43-.86-1.07-1.07-2.14-2.57-2.14-3.64l.64-.21c-.21-1.07-.64-3.64,0-4.49a4.17,4.17,0,0,1-2.14-2.14,6.41,6.41,0,0,1-.86-2.14,23.35,23.35,0,0,1,1.28-2.35c.43,0,.86-.21.86-.64.86-.21,1.5-1.07,2.35-.43a4.27,4.27,0,0,1,1.93.43c0,.43,0,.64.43.86,1.07,0,1.07,1.07,1.5,1.93a3.18,3.18,0,0,0,1.28.21c1.07.21,1.93.21,2.35.64a7.27,7.27,0,0,1,4.28-.64c.21-.64.43-1.28.64-2.14.21.43.21,0,.43,0a3.7,3.7,0,0,1,2.78-1.07c.64.64,1.71.21,2.35,1.07.64.64.86,1.71,1.5,2.57-.64,1.07,0,2.35-1.07,2.78l-1.07,1.07c-.21,0-.21.43-.86.43.64,1.07.21,2.78-.21,4.07.21-.21.86-.21.86-.64.21,0,0,.43,0,.64v.43a3.72,3.72,0,0,1-1.28,2.35,3.21,3.21,0,0,1-2.35,2.57v.43a17.11,17.11,0,0,1,7.06,1.71ZM598,522.06a1,1,0,0,1-.64.64,4.57,4.57,0,0,1-1.07-1.71c-.21-.64.43-1.93.43-1.93.21,0,.43.43.64.43.21.21,0,.64.21,1.07.43.43.86,1.07.43,1.5Zm13.7,11.77-.21.21a7.69,7.69,0,0,0-2.35-.43c0-.64-.43-1.5-.86-1.5-1.07,0-.86.64-1.71.64l1.5-1.5c.21-.43.21-.43.64-.43.43.43.64.64,1.07.64a1.62,1.62,0,0,1-.21.86c.64.43.86,0,1.28.43.43.21.86.21.86,1.07ZM595.9,518.21c0,.64-.43.64-.64,1.07a3.48,3.48,0,0,1-.64-1.28v-1.5c.64.64,1.28,1.28,1.28,1.71Zm6.64,5.14c0,1.07-.21,2.14-.21,3.42-.43,0-.43-.43-.43-1.07-.21-1.07-.64-1.93-.86-3-.43-1.28-1.28-2.35-1.93-3.85-.21-.86-1.07-1.07-1.71-1.5a3.06,3.06,0,0,1,2.35.64c0,.21.21.43.64.86,1.28,0,.86,1.71,1.93,2.35-.43.43-.64.86-1.07,1.07.64.43,1.07.43,1.28,1.07Zm-8.78-9.63a2.6,2.6,0,0,1-3-.21l1.5-.64a5.36,5.36,0,0,0,1.5.86Zm-3.85-3.85c0,.64-.86,0-.86,0h-1.71c0-.43-.21-.64-.21-.86.64-.21,1.07-.64,1.71-.21.21.43.64,1.07,1.07,1.07Zm15,13.27c0,.64-.43,1.28-.21,1.93-.21-1.07-1.07-2.14-1.28-3,0-.21-.21-.21.21-.43,0,0,.86,0,.86.21s.43.86.43,1.28Zm8.56,7.06a6.62,6.62,0,0,1-.43,1.71c-1.07-.21-1.07-1.5-1.28-1.71-.86-1.07-1.93-.21-2.78-.21-.21-1.07.21-1.07.21-1.71.43,0,1.07-.43,1.5,0,.86-.43,1.28.64,2.14.64.21.21.43,1.07.64,1.28Zm3.42,4.71c-.43.64-.43.64-.43,1.07,0-.86-1.07-1.28-1.71-2.78l.64-1.07a2,2,0,0,1,1.07,1.71v.64c0,.21.43.21.43.43Zm-28-28.89c-1.07,0-1.5-.43-2.14-1.5a5.66,5.66,0,0,1,0-1.93,7,7,0,0,1,.64,1.28c.86-.43.86.43.86.64a4.53,4.53,0,0,1,.64,1.5Zm14.55,12.63c-1.5-.86-2.35-2.35-3.85-4.07,1.5,0,1.71,1.5,2.78,1.71a2.53,2.53,0,0,1,1.07,1.07Zm10.7,9.63c-1.28,0-.64-2.35-3.21-2.35-.43,0-.64.86-1.28,1.07V525.7a1.33,1.33,0,0,1,.86-1.28c1.28,0,1.07.43,1.93.86.64,0,.86.43,1.71.43Zm4.07,2.14a3.06,3.06,0,0,1-.64,2.35l-1.07-1.5a19.8,19.8,0,0,1,1.07-2.14l.64,1.28Zm-33-32.53c0,.21-.21,1.71-.21,1.71l-1.5.43.86-3.85a4.21,4.21,0,0,1,.86,1.71ZM615,524.41c-.64,0-1.93-.21-1.93-.64,0-.86-.21-1.07-1.07-1.07a5.67,5.67,0,0,0-2.14.64,6.32,6.32,0,0,1-.64-1.28,7.59,7.59,0,0,1,2.35-.64c1.07,0,2.35,0,2.35.64s1.07.64,1.07,2.35Zm1.5-3.64c-1.28,0-2.35-.21-2.57-.86-.43-.21,0-1.07-.86-1.07-.43,0-.86.64-.86.64-.43.21-1.28-.64-1.28,0,0,.86-.64,1.07-1.5,1.07h-1.07v-1.71c2.14,0,2.14-.86,3-.86.64,0,1.07.43,1.71.43.86,0,.21-.43,1.07-.43s1.28.86,1.71.86c0,.64.64,1.28.64,1.93Zm-.64-3.64a10.13,10.13,0,0,0-4.49-1.5,7.33,7.33,0,0,0-3.42,1.71l-.21-1.71c1.07-.21,1.07-1.07,1.71-1.07h1.5c.64,0,.86-.43,1.07-.43.86,0,.43.86,1.07.86.43,0,.86-.43,1.07-.43.86,0,1.71,1.5,1.71,2.57ZM612,513.28c-1.07,0-1.07-.21-1.71-.21a2.69,2.69,0,0,0-2.35,1.28,1.27,1.27,0,0,1,0-1.5c.43-.43,1.28-1.28,1.93-1.28a2.34,2.34,0,0,1,2.14,1.71Zm.21-2.57c-1.28-.21-1.71-.86-2.78-.86a6.41,6.41,0,0,0-2.14.86c-.43-.64.43-1.93,1.07-2.35q1-.32,1.28,0c0,1.07,1.28.64,1.93.86.21.64.43.86.64,1.5Zm4.07-19.48h-1.93c-.21-.43-.86,0-1.28,0-.21,0-.43,0-1.07-.43,1.07,0,1.5-.64,2.35-.86.64.43,1.5.64,1.93,1.28Zm5.14,3.64a2.22,2.22,0,0,0-1.5-1.07c-.64-.64-1.28-1.5-1.93-1.5.43,0,1.28-.43,1.93-.43.43.86,1.07,1.28,1.28,1.93Zm-44.73,43c-.21,0,.21.43-1.5-1.5-.43,0-.86,1.07-.86,1.5a16.67,16.67,0,0,0,.86,4.49h1.28c0-1.5.21-3.21.21-4.49Zm3.64.21c0-.86-.43-.86-1.07-.86-.43,0-1.28.43-1.28.86,0,.64-.21,4.28-.21,4.28h1.07c.43-1.5,1.5-3.42,1.5-4.28ZM602.75,536l-1.71.21c.64.21.64,1.07.64,1.28A3.2,3.2,0,0,1,601,539c-.43-.43-.43-.86-.86-1.5-.21,0-.43.86-.43,1.28a6.18,6.18,0,0,0,1.28,3.64h1.5a23.1,23.1,0,0,1-.64-4.07,6,6,0,0,1,.86-2.35Zm36.6-15.41A29.2,29.2,0,0,0,630.79,500c-2.35-2.35-4.92-3.42-6.85-5.78a13.06,13.06,0,0,1-2.57-3.42,18.63,18.63,0,0,0-2.35-1.93,13.64,13.64,0,0,0,.43,1.5h-.21a4.49,4.49,0,0,1-2.35-.86l.64-.86c0-.21-.64-.21-1.07-.21-2.57-.43-5.14,1.07-7.71,1.5v.21c1.71.64,1.93,2.57,2.78,3.64h1.07c.43,0,.86.43,1.28.43a2.63,2.63,0,0,0-.43-1.07c.43-.43.64-.43,1.07,0,.86.43,1.93-.43,3,1.07a6.8,6.8,0,0,0-3,.43c0,.21.43.64.43.86-.86-.21-1.93,0-2.35-.64l-.21.21a10.14,10.14,0,0,0,4.07,2.57c2.35.43,4.28-.64,6.42-.21a24.63,24.63,0,0,1,13.06,21.4c0,12.63-7.06,17.55-11.56,17.55a4.59,4.59,0,0,1-2.57-.86,28.47,28.47,0,0,0,.64-6.85c0-7.28-2.78-15.2-6.64-19.26-1.93-1.93-4.07-3.42-6.21-3.42a2.94,2.94,0,0,0-2.57.86,3.51,3.51,0,0,0-1.28,3,11.12,11.12,0,0,1-5.35,1.5A10.38,10.38,0,0,1,594,509v-2.57c-.43-.21-2.14-1.28-1.28-2.14.64.21.86.64,1.07.64a7.11,7.11,0,0,0-1.07-3.42,1.81,1.81,0,0,1-1.28-.43,2.25,2.25,0,0,1-1.07-1.93c.43.86,1.28.43,1.93.86-.86-1.93-.64-2.78-2.14-5.78-.21-1.5-1.93-2.35-2.78-3.42-.64-.43-.86-.86-1.5-.86-.64-.21-.64-1.07-.64-1.5a3.62,3.62,0,0,1,1.07.43c-1.07-2.35-1.71-4.92-3.85-6.21l-.64.21h-2.57c.21-.21.86-.43,1.5-.86a2.62,2.62,0,0,0-1.93-.64,4.09,4.09,0,0,1-1.71.64h-.21c0-.43-.21-1.07.86-1.5a7.07,7.07,0,0,0-3,0c-.21.86-.86,1.5-.86,2.14-.43.21-.64.86-1.07,1.28a15,15,0,0,1,.64-3,10.08,10.08,0,0,1-1.93.64,12.42,12.42,0,0,0-3.64-1.28c.86.64.43,1.71.64,2.57l-.64-.21c-.21-.64-1.07-1.28-1.28-2.14a5.24,5.24,0,0,0-2.57.86v.21a1.86,1.86,0,0,1,1.5,1.07c-1.07,0-1.93-.64-3.21-.64h-.21c-.43,0-.86.64-1.07.86a6.66,6.66,0,0,0-2.57,3.42c.21,0,.86,0,.86.21-.64.21-.86,1.07-1.71,1.28v2.35a9.22,9.22,0,0,0-1.5,2.14,31.07,31.07,0,0,0-1.07,9.2c0,.64-.43.86-.86,1.07v2.57s1.07-.86,1.71-1.28V506a1.42,1.42,0,0,0-1.28,1.5c0,.64.21,1.28.21,1.93,0,.43,0,.43.21.64,0-.21.21-.64.86-.86a1.25,1.25,0,0,1,.86-.21,4.3,4.3,0,0,0-.86,1.71l-.64.64a.75.75,0,0,0-.21.43,55,55,0,0,0,3.21,10.06c-1.5,2.14-3,6.42-4.07,10.49a3.84,3.84,0,0,0-3-.86,2.79,2.79,0,0,0-2.57,1.5,2.87,2.87,0,0,0-3.21.21,3.36,3.36,0,0,0-1.28,3,2.71,2.71,0,0,0-1.07,2.35,6.21,6.21,0,0,0,1.07,3.85h25.47a2.72,2.72,0,0,0-.86-1.5c-.43-1.07,0-2.35,0-3.42a7.55,7.55,0,0,1,1.71-2.78V534l1.28-.21c.64,0,1.28-.64,2.14-.64.43.86.43-.43,1.28-.86,1.93-.21,3.64,0,4.71,1.5a.21.21,0,0,0,.21.21h-.86c-1.07-.21-2.14-.86-3.42-.21,0,.21-.21.21-.21.86v.86c.86,0,1.28.64,1.93.86a3.19,3.19,0,0,1,1.93-.86c.86,0,2.14.43,2.14,1.71v1.93a8.31,8.31,0,0,0,2.35,1.28c-.43.64-.86.64-1.5.64h-1.28c-.21-.21-.43-.21-.43-.64a10.05,10.05,0,0,0-1.28,1.93h19.91c-.43-.64-.86-1.07-.86-1.5a9.43,9.43,0,0,1-.43-3.42L600,534.9a32,32,0,0,0,3.64-.43c.43-.43,0-.64,1.71-.64,1.07,0,1.93.21,2.35.21.21.43.21.43,0,.86-.43.21-1.07-.43-1.5-.21s0,.43,0,.86c.43.21-1.5-.43-1.5-.43a4.44,4.44,0,0,1-.43,1.28,4.82,4.82,0,0,0,1.07,1.07c.21.64-.64,1.07-.64,1.71-.21-.21-1.07-.86-1.07-.64a23.16,23.16,0,0,0,0,3.85h1.71l.21-2.78c.21-1.71,2.35-4.71,3.42-4.71a2.43,2.43,0,0,1,1.71.64c.21.64,1.07.86,1.07,1.28s-.43.43-1.28.43c-.21,0-.21-.43-.86-.86l-.86,1.07s1.07,1.07,1.07,1.71a2.11,2.11,0,0,1-.64,1.71L608.1,539a1.88,1.88,0,0,0-1.28,1.5c0,.64-.43,1.07-.43,1.93h10.49a6.28,6.28,0,0,0,3.42-.86h2.14a14.05,14.05,0,0,0,10.49-4.28c4.07-4.07,6.42-10.49,6.42-16.69Zm-65.49,21.83a11,11,0,0,1-1.07-4.28,7.28,7.28,0,0,1,.43-3l-1.93.43c-.43.64-.64.86-.64,1.28l.86-.43c.21,0,.43.43.64.86-.21.86-1.28.86-1.71,1.07-.43,1.71,1.07,2.78,1.28,4.07Z" transform="translate(-384.65 -480.32)"/></svg>